<svg xmlns="http://www.w3.org/2000/svg" version="1.1" xmlns:xlink="http://www.w3.org/1999/xlink" viewBox="0 0 200 200"><rect width="200" height="200" fill="url('#gradient')"></rect><defs><linearGradient id="gradient" gradientTransform="rotate(45 0.5 0.5)"><stop offset="0%" stop-color="#cfecec"></stop><stop offset="100%" stop-color="#0b2335"></stop></linearGradient></defs><g><g fill="#e8fffa" transform="matrix(7.343426294820717,0,0,7.343426294820717,2.1120475804188317,152.21113680311407)" stroke="#2a4a46" stroke-width="0.1"><path d="M8.87 0L6.36-5.02L4.50-5.02L4.50 0L1.07 0L1.07-14.22L6.67-14.22Q9.20-14.22 10.63-13.10Q12.05-11.97 12.05-9.92L12.05-9.92Q12.05-8.44 11.45-7.46Q10.85-6.48 9.57-5.88L9.57-5.88L12.54-0.15L12.54 0L8.87 0ZM4.50-11.57L4.50-7.67L6.67-7.67Q7.65-7.67 8.14-8.18Q8.63-8.69 8.63-9.61Q8.63-10.53 8.13-11.05Q7.64-11.57 6.67-11.57L6.67-11.57L4.50-11.57ZM21.91 0L19.40-5.02L17.55-5.02L17.55 0L14.12 0L14.12-14.22L19.72-14.22Q22.25-14.22 23.67-13.10Q25.10-11.97 25.10-9.92L25.10-9.92Q25.10-8.44 24.50-7.46Q23.90-6.48 22.62-5.88L22.62-5.88L25.59-0.15L25.59 0L21.91 0ZM17.55-11.57L17.55-7.67L19.72-7.67Q20.69-7.67 21.19-8.18Q21.68-8.69 21.68-9.61Q21.68-10.53 21.18-11.05Q20.68-11.57 19.72-11.57L19.72-11.57L17.55-11.57Z"></path></g></g></svg>